<svg xmlns="http://www.w3.org/2000/svg" xmlns:xlink="http://www.w3.org/1999/xlink" width="500" zoomAndPan="magnify" viewBox="0 0 375 374.999991" height="500" preserveAspectRatio="xMidYMid meet" version="1.2"><defs><clipPath id="f55d718168"><path d="M 26.746094 13.5625 L 353.746094 13.5625 L 353.746094 369 L 26.746094 369 Z M 26.746094 13.5625 "/></clipPath></defs><g id="b79d2b4977"><g clip-rule="nonzero" clip-path="url(#f55d718168)"><path style=" stroke:none;fill-rule:nonzero;fill:#1e90ff;fill-opacity:1;" d="M 65.703125 131.007812 C 76.453125 131.007812 85.199219 122.261719 85.199219 111.511719 C 85.199219 100.761719 76.453125 92.019531 65.703125 92.019531 C 54.953125 92.019531 46.207031 100.761719 46.207031 111.511719 C 46.207031 122.261719 54.953125 131.007812 65.703125 131.007812 Z M 65.703125 103.46875 C 70.136719 103.46875 73.746094 107.078125 73.746094 111.511719 C 73.746094 115.945312 70.136719 119.554688 65.703125 119.554688 C 61.269531 119.554688 57.660156 115.945312 57.660156 111.511719 C 57.660156 107.078125 61.269531 103.46875 65.703125 103.46875 Z M 65.703125 200.621094 C 76.453125 200.621094 85.199219 191.875 85.199219 181.125 C 85.199219 170.375 76.453125 161.632812 65.703125 161.632812 C 54.953125 161.632812 46.207031 170.375 46.207031 181.125 C 46.207031 191.875 54.953125 200.621094 65.703125 200.621094 Z M 65.703125 173.082031 C 70.136719 173.082031 73.746094 176.691406 73.746094 181.125 C 73.746094 185.558594 70.136719 189.167969 65.703125 189.167969 C 61.269531 189.167969 57.660156 185.558594 57.660156 181.125 C 57.660156 176.691406 61.269531 173.082031 65.703125 173.082031 Z M 65.703125 231.246094 C 54.953125 231.246094 46.207031 239.992188 46.207031 250.738281 C 46.207031 261.488281 54.953125 270.234375 65.703125 270.234375 C 76.453125 270.234375 85.199219 261.488281 85.199219 250.738281 C 85.199219 239.992188 76.453125 231.246094 65.703125 231.246094 Z M 65.703125 258.78125 C 61.269531 258.78125 57.660156 255.175781 57.660156 250.742188 C 57.660156 246.304688 61.269531 242.699219 65.703125 242.699219 C 70.136719 242.699219 73.746094 246.304688 73.746094 250.742188 C 73.746094 255.175781 70.136719 258.78125 65.703125 258.78125 Z M 349.863281 241.484375 L 335.683594 236.023438 C 333.617188 228.453125 330.605469 221.191406 326.703125 214.367188 L 332.878906 200.472656 C 333.839844 198.304688 333.367188 195.773438 331.695312 194.097656 L 312.125 174.527344 C 310.449219 172.851562 307.914062 172.382812 305.75 173.34375 L 291.847656 179.519531 C 285.023438 175.617188 277.765625 172.609375 270.199219 170.542969 L 264.738281 156.355469 C 263.886719 154.144531 261.761719 152.6875 259.394531 152.6875 L 251.28125 152.6875 L 251.28125 53.261719 C 251.28125 41.335938 239.113281 31.160156 216.089844 23.832031 C 195.421875 17.253906 168.054688 13.628906 139.023438 13.628906 C 109.996094 13.628906 82.628906 17.253906 61.960938 23.832031 C 38.9375 31.15625 26.769531 41.335938 26.769531 53.261719 L 26.769531 259.980469 C 26.769531 271.910156 38.9375 282.085938 61.960938 289.414062 C 82.628906 295.992188 109.996094 299.613281 139.023438 299.613281 C 146.199219 299.613281 153.335938 299.378906 160.320312 298.933594 C 161.550781 301.671875 162.910156 304.351562 164.40625 306.964844 L 158.234375 320.859375 C 157.269531 323.023438 157.742188 325.558594 159.417969 327.234375 L 178.988281 346.804688 C 180.660156 348.480469 183.199219 348.949219 185.359375 347.988281 L 199.261719 341.8125 C 206.085938 345.714844 213.34375 348.722656 220.914062 350.789062 L 226.375 364.976562 C 227.222656 367.1875 229.347656 368.644531 231.71875 368.644531 L 259.394531 368.644531 C 261.761719 368.644531 263.886719 367.1875 264.738281 364.976562 L 270.195312 350.792969 C 277.765625 348.730469 285.027344 345.71875 291.851562 341.816406 L 305.75 347.988281 C 307.914062 348.953125 310.445312 348.480469 312.121094 346.804688 L 331.691406 327.234375 C 333.367188 325.558594 333.839844 323.023438 332.875 320.859375 L 326.703125 306.957031 C 330.605469 300.132812 333.613281 292.875 335.679688 285.308594 L 349.863281 279.847656 C 352.074219 278.996094 353.535156 276.875 353.535156 274.503906 L 353.535156 246.828125 C 353.535156 244.457031 352.074219 242.335938 349.863281 241.484375 Z M 65.433594 34.742188 C 85.007812 28.511719 111.144531 25.082031 139.023438 25.082031 C 166.90625 25.082031 193.042969 28.511719 212.617188 34.742188 C 232.679688 41.128906 239.828125 48.496094 239.828125 53.261719 C 239.828125 58.03125 232.679688 65.398438 212.617188 71.78125 C 193.042969 78.011719 166.90625 81.445312 139.023438 81.445312 C 111.144531 81.445312 85.007812 78.015625 65.433594 71.78125 C 45.371094 65.398438 38.222656 58.03125 38.222656 53.261719 C 38.222656 48.496094 45.371094 41.128906 65.433594 34.742188 Z M 38.222656 71.628906 C 44.019531 75.792969 51.964844 79.511719 61.960938 82.695312 C 82.628906 89.273438 109.996094 92.894531 139.023438 92.894531 C 168.054688 92.894531 195.421875 89.273438 216.089844 82.695312 C 226.085938 79.511719 234.03125 75.792969 239.828125 71.628906 L 239.828125 122.167969 C 239.828125 126.933594 232.679688 134.304688 212.617188 140.6875 C 193.042969 146.917969 166.90625 150.351562 139.023438 150.351562 C 111.144531 150.351562 85.007812 146.917969 65.433594 140.6875 C 45.371094 134.304688 38.222656 126.933594 38.222656 122.167969 Z M 38.222656 140.535156 C 44.019531 144.699219 51.964844 148.417969 61.960938 151.601562 C 82.628906 158.179688 109.996094 161.800781 139.023438 161.800781 C 168.054688 161.800781 195.421875 158.179688 216.089844 151.601562 C 226.085938 148.417969 234.03125 144.699219 239.828125 140.535156 L 239.828125 152.6875 L 231.71875 152.6875 C 229.347656 152.6875 227.226562 154.144531 226.375 156.355469 L 220.914062 170.542969 C 213.34375 172.605469 206.085938 175.617188 199.261719 179.519531 L 185.359375 173.34375 C 183.195312 172.382812 180.660156 172.851562 178.988281 174.527344 L 159.417969 194.097656 C 157.742188 195.773438 157.269531 198.308594 158.234375 200.472656 L 164.40625 214.371094 C 163.644531 215.703125 162.929688 217.054688 162.238281 218.417969 C 154.65625 218.964844 146.875 219.257812 139.027344 219.257812 C 111.144531 219.257812 85.007812 215.824219 65.433594 209.59375 C 45.371094 203.210938 38.222656 195.84375 38.222656 191.074219 Z M 139.023438 288.164062 C 111.144531 288.164062 85.007812 284.730469 65.433594 278.5 C 45.371094 272.117188 38.222656 264.75 38.222656 259.984375 L 38.222656 209.441406 C 44.019531 213.605469 51.964844 217.328125 61.960938 220.507812 C 82.628906 227.085938 109.996094 230.710938 139.023438 230.710938 C 145.148438 230.710938 151.234375 230.53125 157.226562 230.207031 C 156.566406 232.125 155.964844 234.0625 155.429688 236.023438 L 141.246094 241.484375 C 139.035156 242.335938 137.574219 244.460938 137.574219 246.828125 L 137.574219 274.503906 C 137.574219 276.875 139.035156 278.996094 141.246094 279.847656 L 155.425781 285.308594 C 155.644531 286.113281 155.882812 286.914062 156.125 287.710938 C 150.492188 288.003906 144.769531 288.164062 139.023438 288.164062 Z M 342.082031 270.574219 L 328.804688 275.683594 C 327.042969 276.359375 325.730469 277.863281 325.292969 279.703125 C 323.285156 288.136719 319.953125 296.171875 315.394531 303.578125 C 314.402344 305.183594 314.269531 307.175781 315.035156 308.902344 L 320.8125 321.914062 L 306.804688 335.925781 L 293.796875 330.148438 C 292.070312 329.382812 290.078125 329.515625 288.46875 330.507812 C 281.066406 335.070312 273.03125 338.398438 264.589844 340.40625 C 262.75 340.84375 261.246094 342.15625 260.570312 343.921875 L 255.460938 357.191406 L 235.648438 357.191406 L 230.539062 343.917969 C 229.859375 342.15625 228.355469 340.839844 226.519531 340.40625 C 218.082031 338.398438 210.050781 335.066406 202.644531 330.503906 C 201.035156 329.515625 199.042969 329.382812 197.316406 330.148438 L 184.304688 335.925781 L 170.292969 321.917969 L 176.070312 308.910156 C 176.835938 307.183594 176.703125 305.191406 175.710938 303.582031 C 171.152344 296.179688 167.820312 288.144531 165.8125 279.699219 C 165.375 277.863281 164.0625 276.359375 162.296875 275.683594 L 149.027344 270.574219 L 149.027344 250.757812 L 162.300781 245.648438 C 164.0625 244.972656 165.378906 243.46875 165.816406 241.632812 C 167.824219 233.191406 171.152344 225.160156 175.714844 217.753906 C 176.703125 216.144531 176.839844 214.152344 176.070312 212.425781 L 170.292969 199.417969 L 184.304688 185.40625 L 197.316406 191.183594 C 199.042969 191.953125 201.035156 191.816406 202.640625 190.828125 C 210.046875 186.265625 218.082031 182.9375 226.519531 180.929688 C 228.355469 180.492188 229.859375 179.175781 230.535156 177.414062 L 235.648438 164.140625 L 255.460938 164.140625 L 260.570312 177.414062 C 261.25 179.175781 262.75 180.492188 264.589844 180.929688 C 273.023438 182.9375 281.058594 186.265625 288.464844 190.828125 C 290.074219 191.816406 292.066406 191.953125 293.792969 191.183594 L 306.804688 185.40625 L 320.8125 199.417969 L 315.039062 212.421875 C 314.269531 214.148438 314.40625 216.140625 315.394531 217.75 C 319.957031 225.15625 323.285156 233.191406 325.296875 241.632812 C 325.734375 243.46875 327.046875 244.972656 328.808594 245.652344 L 342.082031 250.757812 Z M 245.554688 197.070312 C 210.488281 197.070312 181.960938 225.597656 181.960938 260.667969 C 181.960938 295.734375 210.488281 324.261719 245.554688 324.261719 C 280.621094 324.261719 309.148438 295.734375 309.148438 260.667969 C 309.148438 225.597656 280.621094 197.070312 245.554688 197.070312 Z M 245.554688 312.808594 C 216.800781 312.808594 193.410156 289.417969 193.410156 260.667969 C 193.410156 231.914062 216.800781 208.523438 245.554688 208.523438 C 274.304688 208.523438 297.699219 231.914062 297.699219 260.667969 C 297.699219 289.417969 274.304688 312.808594 245.554688 312.808594 Z M 257.722656 283.960938 C 258.542969 287.015625 256.730469 290.152344 253.675781 290.972656 C 253.179688 291.105469 252.679688 291.167969 252.191406 291.167969 C 249.660156 291.167969 247.347656 289.480469 246.660156 286.921875 L 233.386719 237.371094 C 232.566406 234.316406 234.378906 231.179688 237.433594 230.359375 C 240.488281 229.542969 243.628906 231.355469 244.449219 234.410156 Z M 268.878906 238.058594 L 290.511719 256.289062 C 291.800781 257.375 292.546875 258.980469 292.546875 260.667969 C 292.546875 262.355469 291.800781 263.957031 290.511719 265.042969 L 268.878906 283.273438 C 267.804688 284.179688 266.492188 284.621094 265.191406 284.621094 C 263.5625 284.621094 261.941406 283.929688 260.808594 282.585938 C 258.773438 280.167969 259.082031 276.554688 261.496094 274.519531 L 277.933594 260.667969 L 261.496094 246.816406 C 259.082031 244.777344 258.769531 241.164062 260.808594 238.746094 C 262.847656 236.328125 266.460938 236.019531 268.878906 238.058594 Z M 229.609375 246.816406 L 213.175781 260.667969 L 229.609375 274.519531 C 232.027344 276.554688 232.335938 280.167969 230.300781 282.585938 C 229.164062 283.929688 227.546875 284.621094 225.917969 284.621094 C 224.613281 284.621094 223.304688 284.179688 222.230469 283.273438 L 200.597656 265.042969 C 199.304688 263.957031 198.5625 262.355469 198.5625 260.667969 C 198.5625 258.980469 199.304688 257.375 200.597656 256.289062 L 222.230469 238.058594 C 224.648438 236.019531 228.261719 236.328125 230.300781 238.746094 C 232.335938 241.164062 232.027344 244.777344 229.609375 246.816406 Z M 229.609375 246.816406 "/></g></g></svg>