<svg xmlns="http://www.w3.org/2000/svg" xmlns:xlink="http://www.w3.org/1999/xlink" width="500" zoomAndPan="magnify" viewBox="0 0 375 374.999991" height="500" preserveAspectRatio="xMidYMid meet" version="1.2"><defs><clipPath id="774ae7ffb2"><path d="M 73 19.964844 L 301 19.964844 L 301 223 L 73 223 Z M 73 19.964844 "/></clipPath><clipPath id="283531f16d"><path d="M 29.109375 70 L 345.609375 70 L 345.609375 287 L 29.109375 287 Z M 29.109375 70 "/></clipPath><clipPath id="295f779e41"><path d="M 29.109375 238 L 345.609375 238 L 345.609375 248 L 29.109375 248 Z M 29.109375 238 "/></clipPath></defs><g id="4938935046"><g clip-rule="nonzero" clip-path="url(#774ae7ffb2)"><path style=" stroke:none;fill-rule:nonzero;fill:#38b6ff;fill-opacity:1;" d="M 279.3125 222.664062 L 95.421875 222.664062 C 83.464844 222.664062 73.742188 212.941406 73.742188 200.984375 L 73.742188 41.632812 C 73.742188 29.675781 83.472656 19.957031 95.421875 19.957031 L 279.3125 19.957031 C 291.269531 19.957031 300.992188 29.683594 300.992188 41.632812 L 300.992188 200.984375 C 300.992188 212.941406 291.269531 222.664062 279.3125 222.664062 Z M 95.421875 28.652344 C 88.257812 28.652344 82.4375 34.476562 82.4375 41.632812 L 82.4375 200.984375 C 82.4375 208.148438 88.265625 213.96875 95.421875 213.96875 L 279.3125 213.96875 C 286.476562 213.96875 292.296875 208.140625 292.296875 200.984375 L 292.296875 41.632812 C 292.296875 34.472656 286.46875 28.652344 279.3125 28.652344 Z M 95.421875 28.652344 "/></g><path style=" stroke:none;fill-rule:nonzero;fill:#38b6ff;fill-opacity:1;" d="M 296.644531 73.035156 L 78.089844 73.035156 C 75.691406 73.035156 73.742188 71.085938 73.742188 68.6875 C 73.742188 66.285156 75.691406 64.339844 78.089844 64.339844 L 296.652344 64.339844 C 299.050781 64.339844 301 66.285156 301 68.6875 C 301 71.085938 299.050781 73.035156 296.644531 73.035156 Z M 296.644531 73.035156 "/><path style=" stroke:none;fill-rule:nonzero;fill:#38b6ff;fill-opacity:1;" d="M 116.027344 58.332031 L 98.175781 58.332031 C 95.777344 58.332031 93.828125 56.382812 93.828125 53.984375 L 93.828125 39 C 93.828125 36.597656 95.777344 34.652344 98.175781 34.652344 L 116.035156 34.652344 C 118.4375 34.652344 120.382812 36.597656 120.382812 39 L 120.382812 53.984375 C 120.375 56.390625 118.4375 58.332031 116.027344 58.332031 Z M 102.523438 49.636719 L 111.6875 49.636719 L 111.6875 43.347656 L 102.523438 43.347656 Z M 102.523438 49.636719 "/><path style=" stroke:none;fill-rule:nonzero;fill:#38b6ff;fill-opacity:1;" d="M 148.703125 58.332031 L 130.847656 58.332031 C 128.445312 58.332031 126.496094 56.382812 126.496094 53.984375 L 126.496094 39 C 126.496094 36.597656 128.445312 34.652344 130.847656 34.652344 L 148.703125 34.652344 C 151.105469 34.652344 153.054688 36.597656 153.054688 39 L 153.054688 53.984375 C 153.054688 56.390625 151.113281 58.332031 148.703125 58.332031 Z M 135.199219 49.636719 L 144.363281 49.636719 L 144.363281 43.347656 L 135.199219 43.347656 Z M 135.199219 49.636719 "/><path style=" stroke:none;fill-rule:nonzero;fill:#38b6ff;fill-opacity:1;" d="M 181.382812 58.332031 L 163.523438 58.332031 C 161.121094 58.332031 159.175781 56.382812 159.175781 53.984375 L 159.175781 39 C 159.175781 36.597656 161.121094 34.652344 163.523438 34.652344 L 181.382812 34.652344 C 183.78125 34.652344 185.730469 36.597656 185.730469 39 L 185.730469 53.984375 C 185.730469 56.390625 183.789062 58.332031 181.382812 58.332031 Z M 167.878906 49.636719 L 177.042969 49.636719 L 177.042969 43.347656 L 167.878906 43.347656 Z M 167.878906 49.636719 "/><path style=" stroke:none;fill-rule:nonzero;fill:#38b6ff;fill-opacity:1;" d="M 276.558594 58.332031 L 216.917969 58.332031 C 214.519531 58.332031 212.570312 56.382812 212.570312 53.984375 L 212.570312 39 C 212.570312 36.597656 214.519531 34.652344 216.917969 34.652344 L 276.558594 34.652344 C 278.957031 34.652344 280.90625 36.597656 280.90625 39 L 280.90625 53.984375 C 280.90625 56.390625 278.957031 58.332031 276.558594 58.332031 Z M 221.265625 49.636719 L 272.210938 49.636719 L 272.210938 43.347656 L 221.265625 43.347656 Z M 221.265625 49.636719 "/><g clip-rule="nonzero" clip-path="url(#283531f16d)"><path style=" stroke:none;fill-rule:nonzero;fill:#38b6ff;fill-opacity:1;" d="M 316.027344 286.726562 L 58.707031 286.726562 C 42.386719 286.726562 29.109375 273.449219 29.109375 257.121094 L 29.109375 100.59375 C 29.109375 84.273438 42.386719 70.996094 58.707031 70.996094 L 78.082031 70.996094 C 80.484375 70.996094 82.429688 72.945312 82.429688 75.34375 L 82.429688 200.992188 C 82.429688 208.15625 88.257812 213.976562 95.414062 213.976562 L 279.304688 213.976562 C 286.46875 213.976562 292.289062 208.148438 292.289062 200.992188 L 292.289062 75.335938 C 292.289062 72.9375 294.234375 70.988281 296.636719 70.988281 L 316.011719 70.988281 C 332.332031 70.988281 345.609375 84.265625 345.609375 100.585938 L 345.609375 257.121094 C 345.625 273.449219 332.347656 286.726562 316.027344 286.726562 Z M 58.707031 79.683594 C 47.179688 79.683594 37.804688 89.058594 37.804688 100.585938 L 37.804688 257.121094 C 37.804688 268.648438 47.179688 278.03125 58.707031 278.03125 L 316.019531 278.03125 C 327.546875 278.03125 336.929688 268.65625 336.929688 257.121094 L 336.929688 100.59375 C 336.929688 89.066406 327.554688 79.691406 316.019531 79.691406 L 300.992188 79.691406 L 300.992188 200.992188 C 300.992188 212.949219 291.269531 222.671875 279.3125 222.671875 L 95.421875 222.671875 C 83.464844 222.671875 73.742188 212.949219 73.742188 200.992188 L 73.742188 79.691406 L 58.707031 79.691406 Z M 58.707031 79.683594 "/></g><path style=" stroke:none;fill-rule:nonzero;fill:#38b6ff;fill-opacity:1;" d="M 159.355469 330.898438 C 158.660156 330.898438 157.960938 330.734375 157.308594 330.386719 C 155.195312 329.253906 154.394531 326.621094 155.527344 324.5 C 167.574219 301.996094 157.429688 285.414062 156.992188 284.71875 C 155.71875 282.695312 156.3125 280.007812 158.328125 278.726562 C 160.34375 277.441406 163.015625 278.015625 164.316406 280.023438 C 164.875 280.886719 177.742188 301.421875 163.199219 328.605469 C 162.414062 330.0625 160.910156 330.898438 159.355469 330.898438 Z M 159.355469 330.898438 "/><path style=" stroke:none;fill-rule:nonzero;fill:#38b6ff;fill-opacity:1;" d="M 215.378906 330.898438 C 213.824219 330.898438 212.328125 330.070312 211.542969 328.605469 C 197 301.429688 209.875 280.890625 210.425781 280.023438 C 211.726562 278.007812 214.421875 277.429688 216.4375 278.726562 C 218.453125 280.023438 219.03125 282.703125 217.742188 284.71875 C 217.28125 285.453125 207.175781 302.019531 219.207031 324.5 C 220.339844 326.613281 219.546875 329.246094 217.425781 330.386719 C 216.777344 330.734375 216.066406 330.898438 215.378906 330.898438 Z M 215.378906 330.898438 "/><path style=" stroke:none;fill-rule:nonzero;fill:#38b6ff;fill-opacity:1;" d="M 238.121094 354.738281 L 136.613281 354.738281 C 134.210938 354.738281 132.265625 352.789062 132.265625 350.390625 L 132.265625 336.921875 C 132.265625 328.808594 138.871094 322.203125 146.984375 322.203125 L 227.742188 322.203125 C 235.859375 322.203125 242.460938 328.808594 242.460938 336.921875 L 242.460938 350.390625 C 242.46875 352.789062 240.523438 354.738281 238.121094 354.738281 Z M 140.960938 346.042969 L 233.765625 346.042969 L 233.765625 336.921875 C 233.765625 333.601562 231.066406 330.898438 227.742188 330.898438 L 146.992188 330.898438 C 143.671875 330.898438 140.96875 333.601562 140.96875 336.921875 L 140.96875 346.042969 Z M 140.960938 346.042969 "/><g clip-rule="nonzero" clip-path="url(#295f779e41)"><path style=" stroke:none;fill-rule:nonzero;fill:#38b6ff;fill-opacity:1;" d="M 341.277344 247.492188 L 33.457031 247.492188 C 31.058594 247.492188 29.109375 245.542969 29.109375 243.144531 C 29.109375 240.742188 31.058594 238.796875 33.457031 238.796875 L 341.277344 238.796875 C 343.675781 238.796875 345.625 240.742188 345.625 243.144531 C 345.625 245.542969 343.675781 247.492188 341.277344 247.492188 Z M 341.277344 247.492188 "/></g><path style=" stroke:none;fill-rule:nonzero;fill:#38b6ff;fill-opacity:1;" d="M 64.957031 267.109375 L 55.777344 267.109375 C 53.378906 267.109375 51.429688 265.160156 51.429688 262.761719 C 51.429688 260.359375 53.378906 258.414062 55.777344 258.414062 L 64.964844 258.414062 C 67.363281 258.414062 69.3125 260.359375 69.3125 262.761719 C 69.3125 265.160156 67.363281 267.109375 64.957031 267.109375 Z M 64.957031 267.109375 "/><path style=" stroke:none;fill-rule:nonzero;fill:#38b6ff;fill-opacity:1;" d="M 93.59375 267.109375 L 84.410156 267.109375 C 82.007812 267.109375 80.0625 265.160156 80.0625 262.761719 C 80.0625 260.359375 82.007812 258.414062 84.410156 258.414062 L 93.59375 258.414062 C 95.996094 258.414062 97.941406 260.359375 97.941406 262.761719 C 97.941406 265.160156 95.996094 267.109375 93.59375 267.109375 Z M 93.59375 267.109375 "/><path style=" stroke:none;fill-rule:nonzero;fill:#38b6ff;fill-opacity:1;" d="M 122.234375 267.109375 L 113.046875 267.109375 C 110.648438 267.109375 108.699219 265.160156 108.699219 262.761719 C 108.699219 260.359375 110.648438 258.414062 113.046875 258.414062 L 122.234375 258.414062 C 124.632812 258.414062 126.582031 260.359375 126.582031 262.761719 C 126.582031 265.160156 124.632812 267.109375 122.234375 267.109375 Z M 122.234375 267.109375 "/><path style=" stroke:none;fill-rule:nonzero;fill:#38b6ff;fill-opacity:1;" d="M 135.15625 141.582031 C 125.464844 141.582031 117.582031 133.699219 117.582031 124.007812 C 117.582031 114.316406 125.464844 106.4375 135.15625 106.4375 C 144.847656 106.4375 152.726562 114.316406 152.726562 124.007812 C 152.726562 133.699219 144.847656 141.582031 135.15625 141.582031 Z M 135.15625 115.132812 C 130.257812 115.132812 126.277344 119.117188 126.277344 124.007812 C 126.277344 128.898438 130.265625 132.886719 135.15625 132.886719 C 140.054688 132.886719 144.03125 128.898438 144.03125 124.007812 C 144.03125 119.117188 140.054688 115.132812 135.15625 115.132812 Z M 135.15625 115.132812 "/><path style=" stroke:none;fill-rule:nonzero;fill:#38b6ff;fill-opacity:1;" d="M 135.15625 170.753906 C 112.789062 170.753906 94.589844 152.554688 94.589844 130.191406 C 94.589844 107.824219 112.789062 89.625 135.15625 89.625 C 157.519531 89.625 175.71875 107.824219 175.71875 130.191406 C 175.71875 152.554688 157.527344 170.753906 135.15625 170.753906 Z M 135.15625 98.320312 C 117.582031 98.320312 103.285156 112.617188 103.285156 130.191406 C 103.285156 147.761719 117.582031 162.058594 135.15625 162.058594 C 152.726562 162.058594 167.023438 147.761719 167.023438 130.191406 C 167.023438 112.617188 152.726562 98.320312 135.15625 98.320312 Z M 135.15625 98.320312 "/><path style=" stroke:none;fill-rule:nonzero;fill:#38b6ff;fill-opacity:1;" d="M 135.15625 170.753906 C 125.09375 170.753906 115.441406 167.042969 107.972656 160.300781 C 106.96875 159.394531 106.441406 158.066406 106.554688 156.722656 C 107.527344 144.757812 115.984375 134.578125 127.585938 131.382812 C 128.679688 131.082031 129.855469 131.226562 130.851562 131.777344 C 133.472656 133.234375 136.847656 133.234375 139.464844 131.777344 C 140.460938 131.226562 141.632812 131.082031 142.734375 131.382812 C 154.335938 134.578125 162.78125 144.757812 163.765625 156.722656 C 163.878906 158.074219 163.347656 159.394531 162.34375 160.300781 C 154.878906 167.042969 145.226562 170.753906 135.15625 170.753906 Z M 115.515625 155.289062 C 121.109375 159.675781 128 162.058594 135.15625 162.058594 C 142.3125 162.058594 149.203125 159.667969 154.796875 155.289062 C 153.46875 148.398438 148.546875 142.636719 141.902344 140.238281 C 137.648438 142.003906 132.664062 142.003906 128.40625 140.238281 C 121.765625 142.636719 116.851562 148.398438 115.515625 155.289062 Z M 115.515625 155.289062 "/><path style=" stroke:none;fill-rule:nonzero;fill:#38b6ff;fill-opacity:1;" d="M 296.644531 132.257812 L 171.296875 132.257812 C 168.898438 132.257812 166.949219 130.3125 166.949219 127.910156 C 166.949219 125.511719 168.898438 123.5625 171.296875 123.5625 L 296.644531 123.5625 C 299.042969 123.5625 300.992188 125.511719 300.992188 127.910156 C 300.992188 130.3125 299.050781 132.257812 296.644531 132.257812 Z M 99.015625 132.257812 L 78.082031 132.257812 C 75.683594 132.257812 73.734375 130.3125 73.734375 127.910156 C 73.734375 125.511719 75.683594 123.5625 78.082031 123.5625 L 99.015625 123.5625 C 101.414062 123.5625 103.363281 125.511719 103.363281 127.910156 C 103.363281 130.3125 101.421875 132.257812 99.015625 132.257812 Z M 99.015625 132.257812 "/><path style=" stroke:none;fill-rule:nonzero;fill:#38b6ff;fill-opacity:1;" d="M 170.480469 186.976562 L 99.828125 186.976562 C 97.429688 186.976562 95.480469 185.027344 95.480469 182.628906 C 95.480469 180.226562 97.429688 178.28125 99.828125 178.28125 L 170.480469 178.28125 C 172.882812 178.28125 174.828125 180.226562 174.828125 182.628906 C 174.828125 185.027344 172.890625 186.976562 170.480469 186.976562 Z M 170.480469 186.976562 "/><path style=" stroke:none;fill-rule:nonzero;fill:#38b6ff;fill-opacity:1;" d="M 170.480469 206.445312 L 99.828125 206.445312 C 97.429688 206.445312 95.480469 204.496094 95.480469 202.097656 C 95.480469 199.695312 97.429688 197.746094 99.828125 197.746094 L 170.480469 197.746094 C 172.882812 197.746094 174.828125 199.695312 174.828125 202.097656 C 174.828125 204.496094 172.890625 206.445312 170.480469 206.445312 Z M 170.480469 206.445312 "/><path style=" stroke:none;fill-rule:nonzero;fill:#38b6ff;fill-opacity:1;" d="M 270.140625 206.445312 L 200.035156 206.445312 C 197.632812 206.445312 195.6875 204.496094 195.6875 202.097656 L 195.6875 182.621094 C 195.6875 180.222656 197.632812 178.273438 200.035156 178.273438 L 270.140625 178.273438 C 272.542969 178.273438 274.488281 180.222656 274.488281 182.621094 L 274.488281 202.097656 C 274.488281 204.503906 272.542969 206.445312 270.140625 206.445312 Z M 204.382812 197.753906 L 265.792969 197.753906 L 265.792969 186.976562 L 204.382812 186.976562 Z M 204.382812 197.753906 "/><path style=" stroke:none;fill-rule:nonzero;fill:#38b6ff;fill-opacity:1;" d="M 270.414062 149.46875 L 199.761719 149.46875 C 197.363281 149.46875 195.414062 147.523438 195.414062 145.121094 C 195.414062 142.722656 197.359375 140.773438 199.761719 140.773438 L 270.414062 140.773438 C 272.8125 140.773438 274.761719 142.722656 274.761719 145.121094 C 274.761719 147.523438 272.8125 149.46875 270.414062 149.46875 Z M 270.414062 149.46875 "/><path style=" stroke:none;fill-rule:nonzero;fill:#38b6ff;fill-opacity:1;" d="M 270.414062 168.9375 L 199.761719 168.9375 C 197.363281 168.9375 195.414062 166.988281 195.414062 164.589844 C 195.414062 162.1875 197.359375 160.242188 199.761719 160.242188 L 270.414062 160.242188 C 272.8125 160.242188 274.761719 162.1875 274.761719 164.589844 C 274.761719 166.988281 272.8125 168.9375 270.414062 168.9375 Z M 270.414062 168.9375 "/></g></svg>